<svg version="1.1" xmlns="http://www.w3.org/2000/svg" xmlns:xlink="http://www.w3.org/1999/xlink" width="24" height="24" viewBox="0,0,256,256"><g fill="#d2153d" fill-rule="nonzero" stroke="none" stroke-width="1" stroke-linecap="butt" stroke-linejoin="miter" stroke-miterlimit="10" stroke-dasharray="" stroke-dashoffset="0" font-family="none" font-weight="none" font-size="none" text-anchor="none" style="mix-blend-mode: normal"><g transform="translate(-5.33333,5.32568) scale(10.66667,10.66667)"><path d="M12.0226,2.99879c-0.6473,1.01055 -1.0226,2.21205 -1.0226,3.50121c0,3.5899 2.9101,6.5 6.5,6.5c1.7469,0 3.3328,-0.6891 4.5008,-1.8104l-0.0008,3.5604c0,1.7949 -1.4551,3.25 -3.25,3.25h-5.7852l-5.38666,3.8173c-0.45062,0.3193 -1.07477,0.2128 -1.39407,-0.2378c-0.11975,-0.169 -0.18407,-0.371 -0.18407,-0.5779l-0.0008,-3.0016h-0.7492c-1.79493,0 -3.25,-1.4551 -3.25,-3.25v-8.5c0,-1.79493 1.45507,-3.25 3.25,-3.25zM17.5,1c3.0376,0 5.5,2.46243 5.5,5.5c0,3.03757 -2.4624,5.5 -5.5,5.5c-3.0376,0 -5.5,-2.46243 -5.5,-5.5c0,-3.03757 2.4624,-5.5 5.5,-5.5zM20.1465,4.14643l-4.0924,4.09235l-1.1541,-1.5388c-0.1657,-0.22091 -0.4791,-0.26569 -0.7,-0.1c-0.2209,0.16569 -0.2657,0.47909 -0.1,0.7l1.5,2c0.1826,0.24342 0.5384,0.26871 0.7536,0.05355l4.5,-4.5c0.1952,-0.19526 0.1952,-0.51184 0,-0.7071c-0.1953,-0.19527 -0.5119,-0.19527 -0.7071,0z"></path></g></g></svg>