<svg width="104" height="28" viewBox="0 0 104 28" fill="none" xmlns="http://www.w3.org/2000/svg">
<path d="M2.90083 26V4.104H12.0808C15.3675 4.104 17.8382 4.954 19.4928 6.654C21.1702 8.33133 22.0088 11.1647 22.0088 15.154C22.0088 18.9167 21.1815 21.6707 19.5268 23.416C17.8948 25.1387 15.4128 26 12.0808 26H2.90083ZM7.49083 22.464H11.4348C12.7268 22.464 13.8148 22.2713 14.6988 21.886C15.5828 21.478 16.2402 20.7527 16.6708 19.71C17.1242 18.6447 17.3508 17.126 17.3508 15.154C17.3508 13.182 17.1468 11.6747 16.7388 10.632C16.3308 9.58933 15.6962 8.87533 14.8348 8.49C13.9735 8.10467 12.8402 7.912 11.4348 7.912H7.49083V22.464ZM31.1633 26.34C29.2367 26.34 27.7293 25.8073 26.6413 24.742C25.576 23.654 25.0433 22.0673 25.0433 19.982V9.884H29.6333V19.88C29.6333 20.968 29.894 21.7613 30.4153 22.26C30.9367 22.736 31.7187 22.974 32.7613 22.974C33.5547 22.974 34.28 22.8153 34.9373 22.498C35.6173 22.1807 36.1953 21.784 36.6713 21.308V9.884H41.2613V26H37.0113L36.8413 24.47C36.1613 25.014 35.3567 25.4673 34.4273 25.83C33.5207 26.17 32.4327 26.34 31.1633 26.34ZM50.8464 26.34C49.6451 26.34 48.5004 26.2493 47.4124 26.068C46.3244 25.9093 45.4517 25.7053 44.7944 25.456V21.648C45.5877 21.9653 46.4831 22.2147 47.4804 22.396C48.4777 22.5547 49.3957 22.634 50.2344 22.634C51.3677 22.634 52.1611 22.566 52.6144 22.43C53.0904 22.294 53.3284 21.988 53.3284 21.512C53.3284 20.968 52.9657 20.5713 52.2404 20.322C51.5377 20.0727 50.4837 19.7213 49.0784 19.268C47.6051 18.7693 46.4717 18.1687 45.6784 17.466C44.8851 16.7633 44.4884 15.7207 44.4884 14.338C44.4884 12.7967 45.0437 11.618 46.1544 10.802C47.2877 9.96333 49.1011 9.544 51.5944 9.544C52.5917 9.544 53.5324 9.62333 54.4164 9.782C55.3004 9.918 56.0484 10.088 56.6604 10.292V14.066C56.0484 13.7713 55.3457 13.556 54.5524 13.42C53.7591 13.2613 53.0224 13.182 52.3424 13.182C51.3677 13.182 50.5857 13.25 49.9964 13.386C49.4297 13.522 49.1464 13.8167 49.1464 14.27C49.1464 14.7687 49.4524 15.12 50.0644 15.324C50.6991 15.528 51.6737 15.834 52.9884 16.242C54.2804 16.6273 55.2891 17.0467 56.0144 17.5C56.7397 17.9533 57.2497 18.4973 57.5444 19.132C57.8391 19.744 57.9864 20.5147 57.9864 21.444C57.9864 24.708 55.6064 26.34 50.8464 26.34ZM67.0663 26.34C65.2076 26.34 63.8249 25.8527 62.9183 24.878C62.0343 23.9033 61.5923 22.5773 61.5923 20.9V13.42H59.3143V9.884H61.5923V6.416L66.1823 5.056V9.884H70.2623L69.9903 13.42H66.1823V20.594C66.1823 21.478 66.3863 22.09 66.7943 22.43C67.2023 22.7473 67.8369 22.906 68.6983 22.906C69.3329 22.906 69.9903 22.7927 70.6703 22.566V25.728C70.1716 25.932 69.6276 26.0793 69.0383 26.17C68.4489 26.2833 67.7916 26.34 67.0663 26.34ZM73.0258 26V9.884H77.2758L77.4798 11.55C78.2052 11.0967 79.1005 10.6887 80.1658 10.326C81.2538 9.94067 82.3192 9.68 83.3618 9.544V13.012C82.7498 13.1027 82.0812 13.2387 81.3558 13.42C80.6305 13.6013 79.9392 13.8053 79.2818 14.032C78.6245 14.2587 78.0692 14.4967 77.6158 14.746V26H73.0258ZM93.1034 26.34C90.0887 26.34 87.8787 25.6147 86.4734 24.164C85.068 22.6907 84.3654 20.6167 84.3654 17.942C84.3654 15.2673 85.068 13.2047 86.4734 11.754C87.9014 10.2807 90.1114 9.544 93.1034 9.544C96.118 9.544 98.328 10.2807 99.7334 11.754C101.161 13.2047 101.875 15.2673 101.875 17.942C101.875 20.6167 101.173 22.6907 99.7674 24.164C98.362 25.6147 96.1407 26.34 93.1034 26.34ZM93.1034 22.43C94.5767 22.43 95.6307 22.1013 96.2654 21.444C96.9 20.764 97.2174 19.5967 97.2174 17.942C97.2174 16.2873 96.9 15.1313 96.2654 14.474C95.6307 13.794 94.5767 13.454 93.1034 13.454C91.6527 13.454 90.61 13.794 89.9754 14.474C89.3407 15.1313 89.0234 16.2873 89.0234 17.942C89.0234 19.5967 89.3407 20.764 89.9754 21.444C90.61 22.1013 91.6527 22.43 93.1034 22.43Z" fill="#16213E"/>
<rect x="56.7792" y="8" width="32.1333" height="3" transform="rotate(-180 56.7792 8)" fill="#F45905"/>
<rect x="92.9292" y="5" width="9.0375" height="3" fill="#001ED3"/>
</svg>
